<svg width="48" height="48" viewBox="0 0 48 48" fill="none" xmlns="http://www.w3.org/2000/svg">
<rect width="48" height="48" rx="16" fill="#F4FB1A"/>
<path d="M16.514 26.5099C15.4805 26.5099 14.6387 27.3516 14.6387 28.3858C14.6387 29.42 15.4802 30.2612 16.514 30.2612C17.5486 30.2612 18.3894 29.42 18.3894 28.3858C18.3894 27.3521 17.5489 26.5099 16.514 26.5099ZM16.514 29.5644C15.8645 29.5644 15.3358 29.0354 15.3358 28.3858C15.3358 27.7362 15.8643 27.2072 16.514 27.2072C17.164 27.2072 17.6928 27.7356 17.6928 28.3858C17.6928 29.0354 17.1643 29.5644 16.514 29.5644ZM31.5555 26.5099C30.5213 26.5099 29.6799 27.3516 29.6799 28.3858C29.6799 29.42 30.521 30.2612 31.5555 30.2612C32.59 30.2612 33.4308 29.42 33.4308 28.3858C33.4306 27.3521 32.5895 26.5099 31.5555 26.5099ZM31.5555 29.5644C30.9056 29.5644 30.3766 29.0354 30.3766 28.3858C30.3766 27.7362 30.9051 27.2072 31.5555 27.2072C32.2049 27.2072 32.7339 27.7356 32.7339 28.3858C32.7334 29.0354 32.2049 29.5644 31.5555 29.5644ZM35.303 25.9296H35.9995V19.7215C35.9995 18.6214 35.1081 17.73 34.0083 17.73H13.9913C12.8908 17.73 12 18.6214 12 19.7215V26.7588C12 27.8594 12.8908 28.7508 13.9913 28.7508H14.5108C14.4981 28.658 14.4896 28.5643 14.4896 28.4683C14.4896 27.3135 15.426 26.3769 16.5809 26.3769C17.7359 26.3769 18.6722 27.3135 18.6722 28.4683C18.6722 28.5643 18.6632 28.658 18.6511 28.7508H29.5479C29.5352 28.658 29.5268 28.5643 29.5268 28.4683C29.5268 27.3135 30.4631 26.3769 31.6187 26.3769C32.7736 26.3769 33.7094 27.3135 33.7094 28.4683C33.7094 28.5643 33.7009 28.658 33.6882 28.7508H36V27.9208H35.3033C35.1933 27.9208 35.1039 27.8316 35.1039 27.7219V26.1285C35.1033 26.0182 35.1927 25.9296 35.303 25.9296ZM25.2776 18.7592V23.5389H21.6266V18.7592H25.2776ZM15.8834 23.5389H15.153C13.477 23.5389 13.5106 22.5436 13.5106 22.4338V18.9582C13.5106 18.8483 13.5994 18.7592 13.7093 18.7592H15.8834H17.5762V23.5389H15.8834ZM17.7754 23.5389V18.7592H21.427V23.5389H17.7754ZM29.4937 23.5389H25.4765V18.7592H29.4937V23.5389ZM31.2691 23.3396C31.2691 23.45 31.1797 23.5389 31.0705 23.5389H29.68V18.7592H31.0705C31.1797 18.7592 31.2691 18.8483 31.2691 18.9582V23.3396ZM34.8401 24.6346C34.8401 24.6346 33.9453 24.7158 32.973 24.4926C32.0013 24.2696 31.8669 23.39 31.8669 23.39V19.7679V18.7426H33.8147C34.3807 18.7426 34.8399 19.2017 34.8399 19.7679V24.6346H34.8401V24.6346Z" fill="#17151A"/>
</svg>
