<svg width="27" height="26" viewBox="0 0 27 26" fill="none" xmlns="http://www.w3.org/2000/svg">
<path d="M21.1799 3.47939V0.840027H5.81989V3.47939H0.69989V7.24003C0.69989 10.472 3.11909 13.1255 6.23461 13.553C6.68105 14.8622 7.47288 16.0264 8.52642 16.9227C9.57997 17.819 10.8561 18.414 12.2199 18.6448V20.04C12.2199 20.719 11.9502 21.3701 11.4701 21.8502C10.99 22.3303 10.3388 22.6 9.65989 22.6H8.37989V25.16H18.6199V22.6H17.3399C16.6609 22.6 16.0098 22.3303 15.5297 21.8502C15.0496 21.3701 14.7799 20.719 14.7799 20.04V18.6448C16.1436 18.4137 17.4196 17.8186 18.4731 16.9224C19.5266 16.0261 20.3185 14.862 20.7652 13.553C23.8807 13.1255 26.2999 10.472 26.2999 7.24003V3.47939H21.1799ZM3.25989 7.24003V6.03939H5.81989V10.8599C5.07172 10.5946 4.424 10.1042 3.96564 9.45606C3.50728 8.80795 3.26075 8.03385 3.25989 7.24003ZM23.7399 7.24003C23.7388 8.03411 23.4922 8.80843 23.0339 9.45692C22.5757 10.1054 21.9281 10.5963 21.1799 10.8624V6.03683H23.7399V7.24003Z" fill="#AFAFAF"/>
</svg>
