<svg width="49" height="48" viewBox="0 0 49 48" fill="none" xmlns="http://www.w3.org/2000/svg">
<rect x="0.5" width="48" height="48" rx="16" fill="#1A6EEB"/>
<path fill-rule="evenodd" clip-rule="evenodd" d="M17.3 15.6C16.6635 15.6 16.053 15.8529 15.6029 16.3029C15.1529 16.753 14.9 17.3635 14.9 18V30C14.9 30.6365 15.1529 31.247 15.6029 31.6971C16.053 32.1471 16.6635 32.4 17.3 32.4H31.7C32.3365 32.4 32.947 32.1471 33.3971 31.6971C33.8471 31.247 34.1 30.6365 34.1 30V18C34.1 17.3635 33.8471 16.753 33.3971 16.3029C32.947 15.8529 32.3365 15.6 31.7 15.6H17.3ZM31.7 30H17.3L22.1 20.4L25.7 27.6L28.1 22.8L31.7 30Z" fill="white"/>
</svg>
