<svg width="48" height="48" viewBox="0 0 48 48" fill="none" xmlns="http://www.w3.org/2000/svg">
<rect width="48" height="48" rx="16" fill="#33C25B"/>
<path d="M29.7599 16.8595V14.88H18.2399V16.8595H14.3999V19.68C14.3999 22.104 16.2143 24.0941 18.5509 24.4147C18.8858 25.3966 19.4796 26.2698 20.2698 26.942C21.06 27.6142 22.017 28.0605 23.0399 28.2336V29.28C23.0399 29.7892 22.8376 30.2776 22.4775 30.6376C22.1175 30.9977 21.6291 31.2 21.1199 31.2H20.1599V33.12H27.8399V31.2H26.8799C26.3707 31.2 25.8823 30.9977 25.5223 30.6376C25.1622 30.2776 24.9599 29.7892 24.9599 29.28V28.2336C25.9827 28.0603 26.9397 27.614 27.7298 26.9418C28.5199 26.2696 29.1139 25.3965 29.4489 24.4147C31.7855 24.0941 33.5999 22.104 33.5999 19.68V16.8595H29.7599ZM16.3199 19.68V18.7795H18.2399V22.3949C17.6788 22.1959 17.193 21.8281 16.8492 21.342C16.5054 20.8559 16.3205 20.2754 16.3199 19.68ZM31.6799 19.68C31.6791 20.2756 31.4942 20.8563 31.1504 21.3427C30.8067 21.829 30.321 22.1972 29.7599 22.3968V18.7776H31.6799V19.68Z" fill="white"/>
</svg>
